<?xml version="1.0" standalone="no"?>
<!DOCTYPE svg PUBLIC "-//W3C//DTD SVG 1.1//EN"
 "http://www.w3.org/Graphics/SVG/1.1/DTD/svg11.dtd">

<svg version="1.1" xmlns="http://www.w3.org/2000/svg"
  xmlns:xlink="http://www.w3.org/1999/xlink">
<!-- automatically generated by aafigure -->
<line x1="7.0" y1="7.0" x2="133.0" y2="7.0" stroke="#000000" stroke-width="2.0" />
<line x1="7.0" y1="7.0" x2="7.0" y2="35.0" stroke="#000000" stroke-width="2.0" />
<line x1="133.0" y1="7.0" x2="133.0" y2="35.0" stroke="#000000" stroke-width="2.0" />
<line x1="7.0" y1="35.0" x2="133.0" y2="35.0" stroke="#000000" stroke-width="2.0" />
<line x1="63.0" y1="42.0" x2="63.0" y2="77.0" stroke="#000000" stroke-width="2.0" />
<line x1="63.0" y1="77.0" x2="119.0" y2="77.0" stroke="#000000" stroke-width="2.0" />
<line x1="119.0" y1="77.0" x2="119.0" y2="105.0" stroke="#000000" stroke-width="2.0" />
<line x1="147.0" y1="91.0" x2="273.0" y2="91.0" stroke="#000000" stroke-width="2.0" />
<line x1="343.0" y1="91.0" x2="455.0" y2="91.0" stroke="#000000" stroke-width="2.0" />
<line x1="119.0" y1="105.0" x2="140.0" y2="105.0" stroke="#000000" stroke-width="2.0" />
<line x1="147.0" y1="91.0" x2="147.0" y2="119.0" stroke="#000000" stroke-width="2.0" />
<line x1="273.0" y1="91.0" x2="273.0" y2="119.0" stroke="#000000" stroke-width="2.0" />
<line x1="287.0" y1="105.0" x2="329.0" y2="105.0" stroke="#000000" stroke-width="2.0" />
<line x1="343.0" y1="91.0" x2="343.0" y2="119.0" stroke="#000000" stroke-width="2.0" />
<line x1="455.0" y1="91.0" x2="455.0" y2="119.0" stroke="#000000" stroke-width="2.0" />
<line x1="147.0" y1="119.0" x2="273.0" y2="119.0" stroke="#000000" stroke-width="2.0" />
<line x1="343.0" y1="119.0" x2="455.0" y2="119.0" stroke="#000000" stroke-width="2.0" />
<line x1="385.0" y1="126.0" x2="385.0" y2="175.0" stroke="#000000" stroke-width="2.0" />
<line x1="455.0" y1="161.0" x2="553.0" y2="161.0" stroke="#000000" stroke-width="2.0" />
<line x1="385.0" y1="175.0" x2="448.0" y2="175.0" stroke="#000000" stroke-width="2.0" />
<line x1="455.0" y1="161.0" x2="455.0" y2="189.0" stroke="#000000" stroke-width="2.0" />
<line x1="553.0" y1="161.0" x2="553.0" y2="189.0" stroke="#000000" stroke-width="2.0" />
<line x1="455.0" y1="189.0" x2="553.0" y2="189.0" stroke="#000000" stroke-width="2.0" />
<text x="14.0" y="25.9" font-family="monospace" font-size="14.0" fill="#000000" >
  Switch
</text>
<text x="154.0" y="109.9" font-family="monospace" font-size="14.0" fill="#000000" >
  Panel
</text>
<text x="350.0" y="109.9" font-family="monospace" font-size="14.0" fill="#000000" >
  Roseta
</text>
<text x="476.0" y="179.9" font-family="monospace" font-size="14.0" fill="#000000" >
  PC
</text>
</svg>
